<mxfile host="65bd71144e">
    <diagram id="lQqjIacscJslqrjan3Mh" name="Page-1">
        <mxGraphModel dx="813" dy="440" grid="1" gridSize="10" guides="1" tooltips="1" connect="1" arrows="1" fold="1" page="1" pageScale="1" pageWidth="850" pageHeight="1100" math="0" shadow="0">
            <root>
                <mxCell id="0"/>
                <mxCell id="1" parent="0"/>
                <mxCell id="7" value="measures.py" style="shape=umlLifeline;perimeter=lifelinePerimeter;whiteSpace=wrap;html=1;container=1;collapsible=0;recursiveResize=0;outlineConnect=0;lifelineDashed=0;" vertex="1" parent="1">
                    <mxGeometry x="560" y="130" width="100" height="950" as="geometry"/>
                </mxCell>
                <mxCell id="8" value="app.py" style="shape=umlLifeline;perimeter=lifelinePerimeter;whiteSpace=wrap;html=1;container=1;collapsible=0;recursiveResize=0;outlineConnect=0;" vertex="1" parent="1">
                    <mxGeometry x="210" y="130" width="100" height="1240" as="geometry"/>
                </mxCell>
                <mxCell id="14" value="" style="endArrow=open;startArrow=none;endFill=0;startFill=0;endSize=8;html=1;verticalAlign=bottom;labelBackgroundColor=none;strokeWidth=1;" edge="1" parent="8" target="10">
                    <mxGeometry width="160" relative="1" as="geometry">
                        <mxPoint x="50" y="80" as="sourcePoint"/>
                        <mxPoint x="170" y="80" as="targetPoint"/>
                    </mxGeometry>
                </mxCell>
                <mxCell id="19" value="1. load_labels" style="edgeLabel;html=1;align=center;verticalAlign=middle;resizable=0;points=[];" vertex="1" connectable="0" parent="14">
                    <mxGeometry x="-0.3987" y="4" relative="1" as="geometry">
                        <mxPoint x="2" y="-6" as="offset"/>
                    </mxGeometry>
                </mxCell>
                <mxCell id="24" value="" style="html=1;points=[];perimeter=orthogonalPerimeter;" vertex="1" parent="8">
                    <mxGeometry x="45" y="80" width="10" height="1030" as="geometry"/>
                </mxCell>
                <mxCell id="37" value="" style="endArrow=open;startArrow=none;endFill=0;startFill=0;endSize=8;html=1;verticalAlign=bottom;labelBackgroundColor=none;strokeWidth=1;" edge="1" parent="8" target="45">
                    <mxGeometry width="160" relative="1" as="geometry">
                        <mxPoint x="50" y="360" as="sourcePoint"/>
                        <mxPoint x="210" y="360" as="targetPoint"/>
                    </mxGeometry>
                </mxCell>
                <mxCell id="38" value="2. __init__, initialize the object" style="edgeLabel;html=1;align=center;verticalAlign=middle;resizable=0;points=[];" vertex="1" connectable="0" parent="37">
                    <mxGeometry x="-0.8179" y="2" relative="1" as="geometry">
                        <mxPoint x="50" y="-8" as="offset"/>
                    </mxGeometry>
                </mxCell>
                <mxCell id="17" value="" style="shape=umlDestroy;dashed=0;" vertex="1" parent="8">
                    <mxGeometry x="30" y="1200" width="40" height="40" as="geometry"/>
                </mxCell>
                <mxCell id="75" value="" style="endArrow=open;startArrow=none;endFill=0;startFill=0;endSize=8;html=1;verticalAlign=bottom;labelBackgroundColor=none;strokeWidth=1;" edge="1" parent="8" target="45">
                    <mxGeometry width="160" relative="1" as="geometry">
                        <mxPoint x="45" y="1060" as="sourcePoint"/>
                        <mxPoint x="275" y="1060" as="targetPoint"/>
                    </mxGeometry>
                </mxCell>
                <mxCell id="76" value="3. graph" style="edgeLabel;html=1;align=center;verticalAlign=middle;resizable=0;points=[];" vertex="1" connectable="0" parent="75">
                    <mxGeometry x="-0.8179" y="2" relative="1" as="geometry">
                        <mxPoint x="50" y="-8" as="offset"/>
                    </mxGeometry>
                </mxCell>
                <mxCell id="10" value="audacity.py" style="shape=umlLifeline;perimeter=lifelinePerimeter;whiteSpace=wrap;html=1;container=1;collapsible=0;recursiveResize=0;outlineConnect=0;lifelineDashed=0;" vertex="1" parent="1">
                    <mxGeometry x="370" y="130" width="100" height="340" as="geometry"/>
                </mxCell>
                <mxCell id="25" value="" style="endArrow=open;startArrow=none;endFill=0;startFill=0;endSize=8;html=1;verticalAlign=bottom;labelBackgroundColor=none;strokeWidth=1;" edge="1" parent="10" target="10">
                    <mxGeometry width="160" relative="1" as="geometry">
                        <mxPoint x="50" y="100" as="sourcePoint"/>
                        <mxPoint x="60" y="130" as="targetPoint"/>
                        <Array as="points">
                            <mxPoint x="110" y="100"/>
                            <mxPoint x="110" y="130"/>
                        </Array>
                    </mxGeometry>
                </mxCell>
                <mxCell id="26" value="find_greatest_number" style="edgeLabel;html=1;align=center;verticalAlign=middle;resizable=0;points=[];" vertex="1" connectable="0" parent="25">
                    <mxGeometry x="-0.1202" relative="1" as="geometry">
                        <mxPoint x="10" y="-16" as="offset"/>
                    </mxGeometry>
                </mxCell>
                <mxCell id="27" value="" style="endArrow=open;startArrow=none;endFill=0;startFill=0;endSize=8;html=1;verticalAlign=bottom;labelBackgroundColor=none;strokeWidth=1;" edge="1" parent="10" target="10">
                    <mxGeometry width="160" relative="1" as="geometry">
                        <mxPoint x="50.5" y="160" as="sourcePoint"/>
                        <mxPoint x="51" y="190" as="targetPoint"/>
                        <Array as="points">
                            <mxPoint x="110.5" y="160"/>
                            <mxPoint x="110.5" y="190"/>
                        </Array>
                    </mxGeometry>
                </mxCell>
                <mxCell id="28" value="dataLabelingValidate" style="edgeLabel;html=1;align=center;verticalAlign=middle;resizable=0;points=[];" vertex="1" connectable="0" parent="27">
                    <mxGeometry x="-0.1202" relative="1" as="geometry">
                        <mxPoint x="10" y="-16" as="offset"/>
                    </mxGeometry>
                </mxCell>
                <mxCell id="29" value="" style="html=1;points=[];perimeter=orthogonalPerimeter;" vertex="1" parent="10">
                    <mxGeometry x="45" y="80" width="10" height="250" as="geometry"/>
                </mxCell>
                <mxCell id="31" value="" style="endArrow=open;startArrow=none;endFill=0;startFill=0;endSize=8;html=1;verticalAlign=bottom;labelBackgroundColor=none;strokeWidth=1;" edge="1" parent="10">
                    <mxGeometry width="160" relative="1" as="geometry">
                        <mxPoint x="55.56999999999999" y="220" as="sourcePoint"/>
                        <mxPoint x="54.998571428571324" y="250" as="targetPoint"/>
                        <Array as="points">
                            <mxPoint x="115.57000000000005" y="220"/>
                            <mxPoint x="115.57000000000005" y="250"/>
                        </Array>
                    </mxGeometry>
                </mxCell>
                <mxCell id="32" value="format_line" style="edgeLabel;html=1;align=center;verticalAlign=middle;resizable=0;points=[];" vertex="1" connectable="0" parent="31">
                    <mxGeometry x="-0.1202" relative="1" as="geometry">
                        <mxPoint x="10" y="-16" as="offset"/>
                    </mxGeometry>
                </mxCell>
                <mxCell id="35" value="" style="endArrow=block;startArrow=none;endFill=0;startFill=0;endSize=8;html=1;verticalAlign=bottom;dashed=1;labelBackgroundColor=none;" edge="1" parent="10" target="8">
                    <mxGeometry width="160" relative="1" as="geometry">
                        <mxPoint x="40" y="330" as="sourcePoint"/>
                        <mxPoint x="-120" y="330" as="targetPoint"/>
                    </mxGeometry>
                </mxCell>
                <mxCell id="33" value="" style="endArrow=open;startArrow=none;endFill=0;startFill=0;endSize=8;html=1;verticalAlign=bottom;labelBackgroundColor=none;strokeWidth=1;" edge="1" parent="10">
                    <mxGeometry width="160" relative="1" as="geometry">
                        <mxPoint x="55.569999999999936" y="280" as="sourcePoint"/>
                        <mxPoint x="54.99857142857127" y="310" as="targetPoint"/>
                        <Array as="points">
                            <mxPoint x="115.57000000000005" y="280"/>
                            <mxPoint x="115.57000000000005" y="310"/>
                        </Array>
                    </mxGeometry>
                </mxCell>
                <mxCell id="34" value="is_number" style="edgeLabel;html=1;align=center;verticalAlign=middle;resizable=0;points=[];" vertex="1" connectable="0" parent="33">
                    <mxGeometry x="-0.1202" relative="1" as="geometry">
                        <mxPoint x="10" y="-16" as="offset"/>
                    </mxGeometry>
                </mxCell>
                <mxCell id="45" value="Deadshot" style="shape=umlLifeline;perimeter=lifelinePerimeter;whiteSpace=wrap;html=1;container=1;collapsible=0;recursiveResize=0;outlineConnect=0;lifelineDashed=0;" vertex="1" parent="1">
                    <mxGeometry x="660" y="380" width="100" height="900" as="geometry"/>
                </mxCell>
                <mxCell id="47" value="" style="html=1;points=[];perimeter=orthogonalPerimeter;" vertex="1" parent="45">
                    <mxGeometry x="45" y="110" width="10" height="660" as="geometry"/>
                </mxCell>
                <mxCell id="48" value="" style="endArrow=open;startArrow=none;endFill=0;startFill=0;endSize=8;html=1;verticalAlign=bottom;labelBackgroundColor=none;strokeWidth=1;" edge="1" parent="45">
                    <mxGeometry width="160" relative="1" as="geometry">
                        <mxPoint x="55.569999999999936" y="120" as="sourcePoint"/>
                        <mxPoint x="54.99857142857127" y="150" as="targetPoint"/>
                        <Array as="points">
                            <mxPoint x="115.57000000000005" y="120"/>
                            <mxPoint x="115.57000000000005" y="150"/>
                        </Array>
                    </mxGeometry>
                </mxCell>
                <mxCell id="49" value="__fill_dicts" style="edgeLabel;html=1;align=center;verticalAlign=middle;resizable=0;points=[];" vertex="1" connectable="0" parent="48">
                    <mxGeometry x="-0.1202" relative="1" as="geometry">
                        <mxPoint x="10" y="-16" as="offset"/>
                    </mxGeometry>
                </mxCell>
                <mxCell id="51" value="" style="endArrow=open;startArrow=none;endFill=0;startFill=0;endSize=8;html=1;verticalAlign=bottom;labelBackgroundColor=none;strokeWidth=1;" edge="1" parent="45">
                    <mxGeometry width="160" relative="1" as="geometry">
                        <mxPoint x="55.569999999999936" y="180" as="sourcePoint"/>
                        <mxPoint x="54.99857142857127" y="210" as="targetPoint"/>
                        <Array as="points">
                            <mxPoint x="115.57000000000005" y="180"/>
                            <mxPoint x="115.57000000000005" y="210"/>
                        </Array>
                    </mxGeometry>
                </mxCell>
                <mxCell id="52" value="__fill_label_maps" style="edgeLabel;html=1;align=center;verticalAlign=middle;resizable=0;points=[];" vertex="1" connectable="0" parent="51">
                    <mxGeometry x="-0.1202" relative="1" as="geometry">
                        <mxPoint x="10" y="-16" as="offset"/>
                    </mxGeometry>
                </mxCell>
                <mxCell id="56" value="" style="endArrow=open;startArrow=none;endFill=0;startFill=0;endSize=8;html=1;verticalAlign=bottom;labelBackgroundColor=none;strokeWidth=1;" edge="1" parent="45">
                    <mxGeometry width="160" relative="1" as="geometry">
                        <mxPoint x="55.569999999999936" y="300" as="sourcePoint"/>
                        <mxPoint x="54.99857142857127" y="330" as="targetPoint"/>
                        <Array as="points">
                            <mxPoint x="115.57000000000005" y="300"/>
                            <mxPoint x="115.57000000000005" y="330"/>
                        </Array>
                    </mxGeometry>
                </mxCell>
                <mxCell id="57" value="__fill_observer_maps" style="edgeLabel;html=1;align=center;verticalAlign=middle;resizable=0;points=[];" vertex="1" connectable="0" parent="56">
                    <mxGeometry x="-0.1202" relative="1" as="geometry">
                        <mxPoint x="10" y="-16" as="offset"/>
                    </mxGeometry>
                </mxCell>
                <mxCell id="58" value="" style="endArrow=open;startArrow=none;endFill=0;startFill=0;endSize=8;html=1;verticalAlign=bottom;labelBackgroundColor=none;strokeWidth=1;" edge="1" parent="45">
                    <mxGeometry width="160" relative="1" as="geometry">
                        <mxPoint x="55.569999999999936" y="360" as="sourcePoint"/>
                        <mxPoint x="54.99857142857127" y="390" as="targetPoint"/>
                        <Array as="points">
                            <mxPoint x="115.57000000000005" y="360"/>
                            <mxPoint x="115.57000000000005" y="390"/>
                        </Array>
                    </mxGeometry>
                </mxCell>
                <mxCell id="59" value="__process" style="edgeLabel;html=1;align=center;verticalAlign=middle;resizable=0;points=[];" vertex="1" connectable="0" parent="58">
                    <mxGeometry x="-0.1202" relative="1" as="geometry">
                        <mxPoint x="10" y="-16" as="offset"/>
                    </mxGeometry>
                </mxCell>
                <mxCell id="60" value="" style="endArrow=open;startArrow=none;endFill=0;startFill=0;endSize=8;html=1;verticalAlign=bottom;labelBackgroundColor=none;strokeWidth=1;" edge="1" parent="45">
                    <mxGeometry width="160" relative="1" as="geometry">
                        <mxPoint x="55.569999999999936" y="420" as="sourcePoint"/>
                        <mxPoint x="54.99857142857127" y="450" as="targetPoint"/>
                        <Array as="points">
                            <mxPoint x="115.57000000000005" y="420"/>
                            <mxPoint x="115.57000000000005" y="450"/>
                        </Array>
                    </mxGeometry>
                </mxCell>
                <mxCell id="61" value="__compare" style="edgeLabel;html=1;align=center;verticalAlign=middle;resizable=0;points=[];" vertex="1" connectable="0" parent="60">
                    <mxGeometry x="-0.1202" relative="1" as="geometry">
                        <mxPoint x="10" y="-16" as="offset"/>
                    </mxGeometry>
                </mxCell>
                <mxCell id="62" value="" style="endArrow=open;startArrow=none;endFill=0;startFill=0;endSize=8;html=1;verticalAlign=bottom;labelBackgroundColor=none;strokeWidth=1;" edge="1" parent="45">
                    <mxGeometry width="160" relative="1" as="geometry">
                        <mxPoint x="55.569999999999936" y="480" as="sourcePoint"/>
                        <mxPoint x="54.99857142857127" y="510" as="targetPoint"/>
                        <Array as="points">
                            <mxPoint x="115.57000000000005" y="480"/>
                            <mxPoint x="115.57000000000005" y="510"/>
                        </Array>
                    </mxGeometry>
                </mxCell>
                <mxCell id="63" value="__check_integrity" style="edgeLabel;html=1;align=center;verticalAlign=middle;resizable=0;points=[];" vertex="1" connectable="0" parent="62">
                    <mxGeometry x="-0.1202" relative="1" as="geometry">
                        <mxPoint x="10" y="-16" as="offset"/>
                    </mxGeometry>
                </mxCell>
                <mxCell id="64" value="" style="endArrow=open;startArrow=none;endFill=0;startFill=0;endSize=8;html=1;verticalAlign=bottom;labelBackgroundColor=none;strokeWidth=1;" edge="1" parent="45">
                    <mxGeometry width="160" relative="1" as="geometry">
                        <mxPoint x="55.569999999999936" y="540" as="sourcePoint"/>
                        <mxPoint x="54.99857142857127" y="570" as="targetPoint"/>
                        <Array as="points">
                            <mxPoint x="115.57000000000005" y="540"/>
                            <mxPoint x="115.57000000000005" y="570"/>
                        </Array>
                    </mxGeometry>
                </mxCell>
                <mxCell id="65" value="__omh" style="edgeLabel;html=1;align=center;verticalAlign=middle;resizable=0;points=[];" vertex="1" connectable="0" parent="64">
                    <mxGeometry x="-0.1202" relative="1" as="geometry">
                        <mxPoint x="10" y="-16" as="offset"/>
                    </mxGeometry>
                </mxCell>
                <mxCell id="70" value="" style="endArrow=open;startArrow=none;endFill=0;startFill=0;endSize=8;html=1;verticalAlign=bottom;labelBackgroundColor=none;strokeWidth=1;" edge="1" parent="45">
                    <mxGeometry width="160" relative="1" as="geometry">
                        <mxPoint x="55.569999999999936" y="600" as="sourcePoint"/>
                        <mxPoint x="54.99857142857127" y="630" as="targetPoint"/>
                        <Array as="points">
                            <mxPoint x="115.57000000000005" y="600"/>
                            <mxPoint x="115.57000000000005" y="630"/>
                        </Array>
                    </mxGeometry>
                </mxCell>
                <mxCell id="71" value="__substractRanges" style="edgeLabel;html=1;align=center;verticalAlign=middle;resizable=0;points=[];" vertex="1" connectable="0" parent="70">
                    <mxGeometry x="-0.1202" relative="1" as="geometry">
                        <mxPoint x="10" y="-16" as="offset"/>
                    </mxGeometry>
                </mxCell>
                <mxCell id="72" value="" style="endArrow=block;startArrow=none;endFill=0;startFill=0;endSize=8;html=1;verticalAlign=bottom;dashed=1;labelBackgroundColor=none;" edge="1" parent="45" target="8">
                    <mxGeometry width="160" relative="1" as="geometry">
                        <mxPoint x="55" y="770" as="sourcePoint"/>
                        <mxPoint x="-95.33333333333348" y="770" as="targetPoint"/>
                    </mxGeometry>
                </mxCell>
                <mxCell id="73" value="" style="html=1;points=[];perimeter=orthogonalPerimeter;" vertex="1" parent="45">
                    <mxGeometry x="45" y="810" width="10" height="50" as="geometry"/>
                </mxCell>
                <mxCell id="77" value="" style="endArrow=open;startArrow=none;endFill=0;startFill=0;endSize=8;html=1;verticalAlign=bottom;labelBackgroundColor=none;strokeWidth=1;" edge="1" parent="45">
                    <mxGeometry width="160" relative="1" as="geometry">
                        <mxPoint x="55.569999999999936" y="820" as="sourcePoint"/>
                        <mxPoint x="54.99857142857127" y="850" as="targetPoint"/>
                        <Array as="points">
                            <mxPoint x="115.57000000000005" y="820"/>
                            <mxPoint x="115.57000000000005" y="850"/>
                        </Array>
                    </mxGeometry>
                </mxCell>
                <mxCell id="78" value="kappa" style="edgeLabel;html=1;align=center;verticalAlign=middle;resizable=0;points=[];" vertex="1" connectable="0" parent="77">
                    <mxGeometry x="-0.1202" relative="1" as="geometry">
                        <mxPoint x="10" y="-16" as="offset"/>
                    </mxGeometry>
                </mxCell>
                <mxCell id="79" value="" style="endArrow=block;startArrow=none;endFill=0;startFill=0;endSize=8;html=1;verticalAlign=bottom;dashed=1;labelBackgroundColor=none;" edge="1" parent="45" target="8">
                    <mxGeometry width="160" relative="1" as="geometry">
                        <mxPoint x="45" y="860" as="sourcePoint"/>
                        <mxPoint x="-200.32999999999998" y="860" as="targetPoint"/>
                    </mxGeometry>
                </mxCell>
                <mxCell id="53" value="" style="endArrow=open;startArrow=none;endFill=0;startFill=0;endSize=8;html=1;verticalAlign=bottom;labelBackgroundColor=none;strokeWidth=1;" edge="1" parent="1">
                    <mxGeometry width="160" relative="1" as="geometry">
                        <mxPoint x="715.5699999999999" y="620" as="sourcePoint"/>
                        <mxPoint x="714.9985714285713" y="650" as="targetPoint"/>
                        <Array as="points">
                            <mxPoint x="775.57" y="620"/>
                            <mxPoint x="775.57" y="650"/>
                        </Array>
                    </mxGeometry>
                </mxCell>
                <mxCell id="54" value="__fill_ioa_maps" style="edgeLabel;html=1;align=center;verticalAlign=middle;resizable=0;points=[];" vertex="1" connectable="0" parent="53">
                    <mxGeometry x="-0.1202" relative="1" as="geometry">
                        <mxPoint x="10" y="-16" as="offset"/>
                    </mxGeometry>
                </mxCell>
                <mxCell id="55" value="ioa maps are the agreement bars" style="shape=note2;boundedLbl=1;whiteSpace=wrap;html=1;size=25;verticalAlign=top;align=center;" vertex="1" parent="1">
                    <mxGeometry x="840" y="600" width="120" height="60" as="geometry"/>
                </mxCell>
                <mxCell id="66" value="" style="endArrow=open;startArrow=none;endFill=0;startFill=0;endSize=8;html=1;verticalAlign=bottom;labelBackgroundColor=none;strokeWidth=1;" edge="1" parent="1">
                    <mxGeometry width="160" relative="1" as="geometry">
                        <mxPoint x="715.5699999999999" y="1040" as="sourcePoint"/>
                        <mxPoint x="714.9985714285713" y="1070" as="targetPoint"/>
                        <Array as="points">
                            <mxPoint x="775.57" y="1040"/>
                            <mxPoint x="775.57" y="1070"/>
                        </Array>
                    </mxGeometry>
                </mxCell>
                <mxCell id="67" value="__upsample" style="edgeLabel;html=1;align=center;verticalAlign=middle;resizable=0;points=[];" vertex="1" connectable="0" parent="66">
                    <mxGeometry x="-0.1202" relative="1" as="geometry">
                        <mxPoint x="10" y="-16" as="offset"/>
                    </mxGeometry>
                </mxCell>
                <mxCell id="68" value="" style="endArrow=open;startArrow=none;endFill=0;startFill=0;endSize=8;html=1;verticalAlign=bottom;labelBackgroundColor=none;strokeWidth=1;" edge="1" parent="1">
                    <mxGeometry width="160" relative="1" as="geometry">
                        <mxPoint x="715.5699999999999" y="1100" as="sourcePoint"/>
                        <mxPoint x="714.9985714285713" y="1130" as="targetPoint"/>
                        <Array as="points">
                            <mxPoint x="775.57" y="1100"/>
                            <mxPoint x="775.57" y="1130"/>
                        </Array>
                    </mxGeometry>
                </mxCell>
                <mxCell id="69" value="__ratingtask" style="edgeLabel;html=1;align=center;verticalAlign=middle;resizable=0;points=[];" vertex="1" connectable="0" parent="68">
                    <mxGeometry x="-0.1202" relative="1" as="geometry">
                        <mxPoint x="10" y="-16" as="offset"/>
                    </mxGeometry>
                </mxCell>
                <mxCell id="74" value="" style="html=1;points=[];perimeter=orthogonalPerimeter;" vertex="1" parent="1">
                    <mxGeometry x="940" y="1130" width="10" height="50" as="geometry"/>
                </mxCell>
            </root>
        </mxGraphModel>
    </diagram>
</mxfile>